PathFileType	4	(X/Y/Z)	67_1_25_p0_0-210_filt_butterworth.trc
DataRate	CameraRate	NumFrames	NumMarkers	Units	OrigDataRate	OrigDataStartFrame	OrigNumFrames
55.0	55.0	5	27	m	55.0	78	210
Frame#	Time	RHip			RKnee			RAnkle			RBigToe			RSmallToe			RHeel			LHip			LKnee			LAnkle			LBigToe			LSmallToe			LHeel			Neck			Head			Nose			RShoulder			RElbow			RWrist			RThumb			RIndex			RPinky			LShoulder			LElbow			LWrist			LThumb			LIndex			LPinky			
		X1	Y1	Z1	X2	Y2	Z2	X3	Y3	Z3	X4	Y4	Z4	X5	Y5	Z5	X6	Y6	Z6	X7	Y7	Z7	X8	Y8	Z8	X9	Y9	Z9	X10	Y10	Z10	X11	Y11	Z11	X12	Y12	Z12	X13	Y13	Z13	X14	Y14	Z14	X15	Y15	Z15	X16	Y16	Z16	X17	Y17	Z17	X18	Y18	Z18	X19	Y19	Z19	X20	Y20	Z20	X21	Y21	Z21	X22	Y22	Z22	X23	Y23	Z23	X24	Y24	Z24	X25	Y25	Z25	X26	Y26	Z26	X27	Y27	Z27	
78	1.4181818181818182	0.34404571702710873	0.8698012567475613	0.6894881135755339	0.3166443299109892	0.43108944184259784	0.7562722155333529	0.336687677174258	-0.02682634744233467	0.9375217163205207	0.3292411299574655	-0.05186351410130826	0.617634567184235	0.3830792600102383	-0.06961704911299532	0.7125734458403895	0.3346882330798564	-0.10289349605960495	0.9975272290328386	0.1768788416863557	0.8728266580675788	0.7111868499182694	0.16767410697194063	0.42400027725027845	0.7723783666915651	0.15223002056323576	-0.02191403477233661	0.8934581644593078	0.18783193828218522	-0.061642274882959425	0.6585901122402804	0.13277948604941933	-0.06528303028985945	0.7206138152786853	0.1637746275091102	-0.11569777727058546	1.0410490221750517	0.2661772860245951	1.4124689350144701	0.6088358839749538	0.22976618691625428	1.6411974699591512	0.48976816153813735	0.20777762546392597	1.5012045197933066	0.4857511911162967	0.4010209808971852	1.324472455800019	0.5978076683325036	0.3423892308972544	1.0965856149289623	0.4322817825534451	0.18394951361786582	1.2474096935437469	0.3455113050339541	0.11726418934649001	1.3234826286760322	0.34926893586553165	0.11200488014665373	1.3240825150609212	0.3235450512248067	0.1179763399369962	1.2792909954490541	0.27706754057578653	0.13661981044956648	1.3611705566919137	0.6714337353476529	-0.004614821777785894	1.164445514559555	0.610699678513561	-0.002601607432965115	1.278369670476546	0.39962114759015965	0.023716532947130015	1.3489261763150624	0.3321165748407631	-0.0014969638864409391	1.3543674501902971	0.2921758793739051	-0.015366472203344597	1.328523471586958	0.2868101505366428	
79	1.4363636363636365	0.34283763226647135	0.8694261663162657	0.6860877806736131	0.317142709301313	0.43032722685180436	0.7530416656779454	0.33638255604613904	-0.02734704833774343	0.9365735510840582	0.3284840764233432	-0.05287439164523251	0.6186259332528263	0.38290840794387093	-0.06953512297926727	0.7121807256579038	0.33470208724456446	-0.10287943711852444	0.9953863182590625	0.1779598846370845	0.8732960252997395	0.7119833395553554	0.1681697942812176	0.42338610567060503	0.7720400917440192	0.15281746179799957	-0.02209491431109284	0.8934258625325385	0.18856394210352218	-0.061227076073915226	0.6574683507739953	0.13331936808378594	-0.06637475515716945	0.7231891424236047	0.16499537753342755	-0.11659014398299677	1.040859553901278	0.26786799540769973	1.4110834569166644	0.6062981478018432	0.2285557155778965	1.6405627478995337	0.498519365115336	0.20591356944562766	1.5018189175985521	0.4910792526995046	0.40061064820346226	1.322228612219295	0.5977241776982508	0.3539067848210118	1.082968171839521	0.4606072588320097	0.1997526198921448	1.2325746822490709	0.3704833871323914	0.13319438087175373	1.3122593343965694	0.3696710595255358	0.13035566653679087	1.312871986891916	0.34283063105643824	0.1360597331053169	1.2643145484653568	0.30224188959935644	0.14086710553993426	1.3635517297548239	0.6583067171571039	-0.013995966616631399	1.1872006681225016	0.5879907978446633	-0.027614022696760544	1.2863740417162914	0.3739868031802593	-0.005843736803153327	1.3564199303634046	0.3138132986559198	-0.032589120966227444	1.3603803766134333	0.2847337177161684	-0.046900342484212945	1.3342139869290461	0.2812184577722565	
80	1.4545454545454546	0.341568007021697	0.8692766542377036	0.6829024910353784	0.31760863939735995	0.42952255367644154	0.7503988111539059	0.33598371550833833	-0.0275838504355672	0.9353095120666393	0.327528884332688	-0.05382977058144495	0.6194305674527683	0.3826056304799257	-0.06950077815995645	0.7119660388359952	0.33462451264031623	-0.10270839535944995	0.9931156057641292	0.17904697567381972	0.8739714650245584	0.7128516007434782	0.16871705621830638	0.4230439853685229	0.7716695947237298	0.15333832799904476	-0.02229175229967141	0.8933704369295603	0.1888544378030778	-0.05996534390138211	0.6566321108034293	0.13371015241457188	-0.0669300589571798	0.7244372309736686	0.16629121674244626	-0.11726871239894528	1.0407675070877231	0.2696091256886462	1.4093619462866263	0.6037952050081417	0.22710058915331904	1.6401677350750805	0.5083000852915598	0.20399642845719496	1.5030856749217423	0.4966468767371099	0.40049698721255633	1.3194473881806585	0.5976034073206806	0.36104188714934105	1.0734403593611404	0.4843993528383149	0.21345924606313904	1.218047209260828	0.39367442293479016	0.1446023690191509	1.3007109544018296	0.38546244053889445	0.14503305732083796	1.301061108825075	0.35743418647562114	0.15068629115015333	1.249572749009596	0.32773016714117853	0.1451707480553346	1.3653480732165668	0.6452739691443443	-0.019917487832123864	1.2118356247348516	0.5666695189120251	-0.05310986034708148	1.2961911512075968	0.34933594694823755	-0.03884797303580019	1.362118848484632	0.2857059569500969	-0.06492557476229176	1.3662893569112842	0.2673479752156043	-0.08022147027942132	1.338972208776542	0.26559793819815675	
81	1.4727272727272729	0.34011025207522727	0.8694309201159156	0.6799949763261715	0.3179586861535173	0.4287889815557162	0.7480133184709707	0.3355304404401085	-0.02765813570857846	0.933713034544249	0.3264963420217104	-0.054392804837397085	0.6199849563032205	0.3822180101923017	-0.06952739923752421	0.7117940688168163	0.3343668912812157	-0.10241033955769997	0.9908378006462326	0.18001477372267077	0.8746899923044738	0.7137819381126317	0.16915386007130065	0.4229149701711624	0.7714176117273452	0.15361120227574102	-0.02248179182820377	0.8933002621714633	0.1883186607772914	-0.05808591239569348	0.6561183367356519	0.13357850909011446	-0.06698012262919315	0.7244500776015996	0.1673893266864431	-0.11781149401896612	1.0407653563967116	0.27108492001550083	1.4076415705721597	0.6018095954050824	0.22547011745418755	1.640052907804744	0.5182490160772504	0.20237595943470432	1.504723143862192	0.5020120162627184	0.40111842895485295	1.3166204149497405	0.5974280089258872	0.36434291853729905	1.0679450196733775	0.501435336546132	0.22478829679255538	1.2043648862353218	0.4160400963677895	0.15184415413621632	1.2890330041243412	0.40265732929359244	0.15591738422424595	1.2888846132718326	0.3717149876755056	0.1617923714994945	1.2356477868284188	0.35243034978815474	0.14873223248294226	1.3662928645415007	0.6344536478851426	-0.022298329058815906	1.234495275447115	0.5518732827523399	-0.07514773462083432	1.305890313108003	0.3286185813691894	-0.06954038135646325	1.3657226956074764	0.2552523549450991	-0.09315847000254457	1.3712876484812873	0.2455112515880596	-0.10999140633688295	1.342353573409429	0.2454739549622924	
82	1.490909090909091	0.33843665726317645	0.8698254772328581	0.6773157257635631	0.31813962845486443	0.428195685955118	0.745772577203527	0.3350333014030129	-0.027635081645738746	0.9317432256406083	0.3255092743254203	-0.054379266445001906	0.6201122184984147	0.3818613454337882	-0.06962251434983188	0.7115399785734017	0.3339178474516232	-0.10200041717532854	0.9886770125482941	0.1807467542336921	0.8753423475337336	0.7146730061276418	0.169416796045233	0.42295903231905085	0.771278783956658	0.15351173867525567	-0.02257296773419966	0.8932201277239534	0.1869764821617192	-0.056064794057297855	0.6558308930721314	0.13290095217786074	-0.06659268616696272	0.7234058226553886	0.16800636061549223	-0.11819316823120225	1.0406041549979377	0.2723758280036107	1.4061506629256388	0.6012241040053163	0.22412952972592978	1.6401728546542202	0.5272457013809164	0.2015424693986788	1.5062110219469094	0.5061639648887106	0.40253205092817723	1.3141304847757933	0.5972654728780525	0.3658624654477076	1.0656247692514187	0.5123877749640837	0.2333439865669415	1.192001136025239	0.43723803973904535	0.1558628530255757	1.2776894977603033	0.4228783534787661	0.16356768832734433	1.2770695402676961	0.3875175592137965	0.16979636401829948	1.2230075981670618	0.3750868149371941	0.15102049829869235	1.36609484472354	0.6276878718796101	-0.022045681404065112	1.251774024386015	0.5466863293277375	-0.0910601722602748	1.313575951034684	0.3150105015349055	-0.09318695448121615	1.367394630442865	0.2305798585895516	-0.11343881246530671	1.3749208871451462	0.22543714856502398	-0.13208501859137486	1.3444879681316326	0.2270837011841062	
